<svg width="11" height="3" viewBox="0 0 11 3" fill="none" xmlns="http://www.w3.org/2000/svg">
<path d="M1.02907 0.406006L1.02907 2.25207H0.606076L0.606076 0.406006L1.02907 0.406006Z" fill="#FF7000"/>
<path d="M1.49423 0.574707L1.49423 2.08286H1.24023L1.24023 0.574707H1.49423Z" fill="#FF7000"/>
<path d="M6.98466 0.625244V2.03208H6.53698V0.625244L6.98466 0.625244Z" fill="#FF7000"/>
<path d="M9.17645 1.71496L10.4341 1.32888L9.17645 0.942802C8.53423 0.745571 7.86757 0.639175 7.19586 0.626709V2.03105C7.86757 2.01858 8.53423 1.91219 9.17645 1.71496Z" fill="#FF7000"/>
<path d="M6.32587 2.25205V0.406006L1.7055 0.406006V2.25205L6.32587 2.25205ZM3.39711 1.04303C3.36911 1.04303 3.34225 1.0319 3.32245 1.0121C3.30265 0.992299 3.29152 0.965442 3.29152 0.937438C3.29152 0.909434 3.30265 0.882576 3.32245 0.862775C3.34225 0.842973 3.36911 0.831848 3.39711 0.831848L5.37979 0.831848C5.4078 0.831848 5.43465 0.842973 5.45445 0.862775C5.47426 0.882576 5.48538 0.909434 5.48538 0.937438C5.48538 0.965442 5.47426 0.992299 5.45445 1.0121C5.43465 1.0319 5.4078 1.04303 5.37979 1.04303L3.39711 1.04303ZM5.8013 1.04303C5.7733 1.04303 5.74644 1.0319 5.72664 1.0121C5.70684 0.992299 5.69572 0.965442 5.69572 0.937438C5.69572 0.909434 5.70684 0.882576 5.72664 0.862775C5.74644 0.842973 5.7733 0.831848 5.8013 0.831848H5.95232C5.98032 0.831848 6.00718 0.842973 6.02698 0.862775C6.04678 0.882576 6.05791 0.909434 6.05791 0.937438C6.05791 0.965442 6.04678 0.992299 6.02698 1.0121C6.00718 1.0319 5.98032 1.04303 5.95232 1.04303H5.8013Z" fill="#FF7000"/>
</svg>
