<svg width="33" height="7" viewBox="0 0 33 7" fill="none" xmlns="http://www.w3.org/2000/svg">
<path d="M1.38062 0L1.38062 6.02543H-1.07288e-06L-1.07288e-06 0L1.38062 0Z" fill="#FF7000"/>
<path d="M2.89894 0.55127L2.89894 5.47378H2.06988L2.06988 0.55127L2.89894 0.55127Z" fill="#FF7000"/>
<path d="M20.8193 0.716797V5.3086H19.3581V0.716797L20.8193 0.716797Z" fill="#FF7000"/>
<path d="M27.973 4.27291L32.0779 3.01278L27.973 1.75265C25.8769 1.10891 23.7009 0.761637 21.5085 0.720947V5.30462C23.7009 5.26393 25.8769 4.91666 27.973 4.27291Z" fill="#FF7000"/>
<path d="M18.6689 6.02535V0L3.58833 0V6.02535L18.6689 6.02535ZM9.10962 2.07919C9.01821 2.07919 8.93056 2.04288 8.86592 1.97825C8.80129 1.91362 8.76498 1.82596 8.76498 1.73456C8.76498 1.64315 8.80129 1.55549 8.86592 1.49086C8.93056 1.42623 9.01821 1.38992 9.10962 1.38992L15.5809 1.38992C15.6723 1.38992 15.76 1.42623 15.8246 1.49086C15.8893 1.55549 15.9256 1.64315 15.9256 1.73456C15.9256 1.82596 15.8893 1.91362 15.8246 1.97825C15.76 2.04288 15.6723 2.07919 15.5809 2.07919L9.10962 2.07919ZM16.9567 2.07919C16.8653 2.07919 16.7777 2.04288 16.713 1.97825C16.6484 1.91362 16.6121 1.82596 16.6121 1.73456C16.6121 1.64315 16.6484 1.55549 16.713 1.49086C16.7777 1.42623 16.8653 1.38992 16.9567 1.38992H17.4496C17.541 1.38992 17.6287 1.42623 17.6933 1.49086C17.758 1.55549 17.7943 1.64315 17.7943 1.73456C17.7943 1.82596 17.758 1.91362 17.6933 1.97825C17.6287 2.04288 17.541 2.07919 17.4496 2.07919L16.9567 2.07919Z" fill="#FF7000"/>
</svg>
