<svg width="15" height="16" viewBox="0 0 15 16" fill="none" xmlns="http://www.w3.org/2000/svg">
<path d="M7.77234 7.82505C9.77706 7.82505 11.4024 6.07337 11.4024 3.91255C11.4024 1.75168 10.8688 0 7.77234 0C4.67592 0 4.14221 1.75168 4.14221 3.91255C4.14221 6.07337 5.76751 7.82505 7.77234 7.82505Z" fill="#F7F7F7"/>
<path d="M0.916163 13.7992C0.91533 13.6674 0.914497 13.762 0.916163 13.7992V13.7992Z" fill="#F7F7F7"/>
<path d="M14.6284 13.9019C14.6311 13.8658 14.6293 13.6517 14.6284 13.9019V13.9019Z" fill="#F7F7F7"/>
<path d="M14.6209 13.6412C14.5537 9.87703 13.9997 8.80444 9.76022 8.12549C9.76022 8.12549 9.16345 8.80028 7.77249 8.80028C6.38154 8.80028 5.78467 8.12549 5.78467 8.12549C1.59146 8.79703 1.00375 9.85372 0.926479 13.519C0.920143 13.8182 0.917206 13.834 0.916073 13.7992C0.91633 13.8643 0.916639 13.9847 0.916639 14.1947C0.916639 14.1947 1.92596 16.0002 7.77249 16.0002C13.6189 16.0002 14.6284 14.1947 14.6284 14.1947C14.6284 14.0598 14.6285 13.966 14.6286 13.9022C14.6275 13.9237 14.6252 13.882 14.6209 13.6412Z" fill="#F7F7F7"/>
</svg>
