<svg width="31" height="31" viewBox="0 0 31 31" fill="none" xmlns="http://www.w3.org/2000/svg">
<path d="M26.3431 4.64625C20.3242 -1.37321 10.5316 -1.37321 4.51387 4.64479C-1.50501 10.6628 -1.50443 20.4557 4.51445 26.4749C10.5316 32.4926 20.3242 32.4926 26.3425 26.4737C32.3608 20.4557 32.3605 10.6634 26.3431 4.64625ZM24.6588 24.7906C19.5692 29.8803 11.2874 29.8808 6.19751 24.7912C1.10672 19.7007 1.1073 11.4181 6.19751 6.32843C11.2871 1.2391 19.5686 1.23852 24.6594 6.32902C29.749 11.4186 29.7485 19.7013 24.6588 24.7906ZM9.6707 11.3823C9.6707 10.3861 10.4786 9.57819 11.4748 9.57819C12.4707 9.57819 13.2786 10.3858 13.2786 11.3823C13.2786 12.379 12.4707 13.1867 11.4748 13.1867C10.4786 13.1867 9.6707 12.379 9.6707 11.3823ZM17.8509 11.3823C17.8509 10.3861 18.6595 9.57819 19.6556 9.57819C20.6515 9.57819 21.4594 10.3858 21.4594 11.3823C21.4594 12.379 20.6518 13.1867 19.6556 13.1867C18.6595 13.1867 17.8509 12.379 17.8509 11.3823ZM22.1161 18.7712C20.998 21.3567 18.3796 23.0273 15.4458 23.0273C12.4488 23.0273 9.81501 21.3483 8.73563 18.7496C8.5506 18.3048 8.76153 17.7939 9.20695 17.6089C9.31634 17.5638 9.42981 17.5423 9.54153 17.5423C9.88367 17.5423 10.2084 17.7445 10.3477 18.0805C11.1556 20.0257 13.1567 21.2819 15.4458 21.2819C17.6831 21.2819 19.6725 20.0248 20.5139 18.0785C20.7053 17.6359 21.2191 17.432 21.6613 17.6237C22.1035 17.8154 22.3075 18.3289 22.1161 18.7712Z" fill="#FF7000"/>
</svg>
