<svg width="150" height="36" viewBox="0 0 150 36" fill="none" xmlns="http://www.w3.org/2000/svg">
<path d="M0.64 0.0479994H6.4V13.68L5.632 18.432L10.336 0.0479994H16.528V36H10.816V22.368L11.584 17.616L6.88 36H0.64V0.0479994ZM38.8386 21.168V31.488C38.8386 32.128 38.7106 32.72 38.4546 33.264C38.2306 33.808 37.9106 34.288 37.4946 34.704C37.1106 35.088 36.6306 35.408 36.0546 35.664C35.5106 35.888 34.9346 36 34.3266 36H27.7026C27.0946 36 26.5186 35.888 25.9746 35.664C25.4306 35.408 24.9506 35.088 24.5346 34.704C24.1506 34.288 23.8306 33.808 23.5746 33.264C23.3506 32.72 23.2386 32.128 23.2386 31.488V4.56C23.2386 3.952 23.3506 3.376 23.5746 2.832C23.8306 2.256 24.1506 1.776 24.5346 1.392C24.9506 0.975999 25.4306 0.655998 25.9746 0.431997C26.5186 0.175999 27.0946 0.0479994 27.7026 0.0479994H34.3266C34.9346 0.0479994 35.5106 0.175999 36.0546 0.431997C36.6306 0.655998 37.1106 0.975999 37.4946 1.392C37.9106 1.776 38.2306 2.256 38.4546 2.832C38.7106 3.376 38.8386 3.952 38.8386 4.56V15.648H33.1746V6.048C33.1746 5.792 33.0946 5.552 32.9346 5.328C32.7746 5.072 32.5506 4.944 32.2626 4.944H29.8626C29.5746 4.944 29.3506 5.072 29.1906 5.328C29.0626 5.552 28.9986 5.792 28.9986 6.048V30C28.9986 30.288 29.0786 30.56 29.2386 30.816C29.3986 31.04 29.6066 31.152 29.8626 31.152H32.0706C32.3906 31.152 32.6466 31.04 32.8386 30.816C33.0626 30.592 33.1746 30.32 33.1746 30V21.168H38.8386ZM44.9455 0.0479994H60.5455V5.76H55.6015V36H49.8415V5.76H44.9455V0.0479994ZM70.8096 36C70.2016 36 69.6256 35.888 69.0816 35.664C68.5376 35.408 68.0576 35.088 67.6416 34.704C67.2576 34.288 66.9376 33.808 66.6816 33.264C66.4576 32.72 66.3456 32.128 66.3456 31.488V4.56C66.3456 3.952 66.4576 3.376 66.6816 2.832C66.9376 2.256 67.2576 1.776 67.6416 1.392C68.0576 0.975999 68.5376 0.655998 69.0816 0.431997C69.6256 0.175999 70.2016 0.0479994 70.8096 0.0479994H77.4336C78.0416 0.0479994 78.6176 0.175999 79.1616 0.431997C79.7376 0.655998 80.2176 0.975999 80.6016 1.392C81.0176 1.776 81.3376 2.256 81.5616 2.832C81.8176 3.376 81.9456 3.952 81.9456 4.56V31.488C81.9456 32.128 81.8176 32.72 81.5616 33.264C81.3376 33.808 81.0176 34.288 80.6016 34.704C80.2176 35.088 79.7376 35.408 79.1616 35.664C78.6176 35.888 78.0416 36 77.4336 36H70.8096ZM73.1616 4.848C72.8736 4.848 72.6176 4.976 72.3936 5.232C72.2016 5.456 72.1056 5.728 72.1056 6.048V30C72.1056 30.256 72.2176 30.512 72.4416 30.768C72.6656 31.024 72.9056 31.152 73.1616 31.152H75.1776C75.4976 31.152 75.7536 31.04 75.9456 30.816C76.1696 30.592 76.2816 30.32 76.2816 30V6C76.2816 5.744 76.1696 5.488 75.9456 5.232C75.7536 4.976 75.3856 4.848 74.8416 4.848H73.1616ZM89.2469 0.0479994H100.239C100.847 0.0479994 101.423 0.175999 101.967 0.431997C102.543 0.655998 103.039 0.975999 103.455 1.392C103.871 1.776 104.207 2.256 104.463 2.832C104.719 3.376 104.847 3.952 104.847 4.56V16.752C104.847 17.392 104.719 18 104.463 18.576C104.207 19.12 103.871 19.6 103.455 20.016C103.039 20.4 102.543 20.704 101.967 20.928C101.423 21.152 100.847 21.264 100.239 21.264H94.9589V36H89.2469V0.0479994ZM94.9589 4.848V16.368H97.9829C98.3029 16.368 98.5749 16.272 98.7989 16.08C99.0229 15.856 99.1349 15.584 99.1349 15.264V6C99.1349 5.744 99.0389 5.488 98.8469 5.232C98.6869 4.976 98.4629 4.848 98.1749 4.848H94.9589ZM111.621 0.0479994H117.381V13.68L116.613 18.432L121.317 0.0479994H127.509V36H121.797V22.368L122.565 17.616L117.861 36H111.621V0.0479994ZM133.692 16.752V4.56C133.692 3.952 133.82 3.376 134.076 2.832C134.332 2.256 134.668 1.776 135.084 1.392C135.532 0.975999 136.028 0.655998 136.572 0.431997C137.148 0.175999 137.74 0.0479994 138.348 0.0479994H149.34V36H143.628V26.592L144.588 22.08L138.732 36H132.636L138.972 21.312C137.34 21.12 136.044 20.64 135.084 19.872C134.156 19.104 133.692 18.064 133.692 16.752ZM140.412 4.848C140.124 4.848 139.884 4.976 139.692 5.232C139.532 5.488 139.452 5.744 139.452 6V15.264C139.452 15.584 139.564 15.856 139.788 16.08C140.012 16.272 140.284 16.368 140.604 16.368H143.628V4.848H140.412Z" fill="white"/>
</svg>
