<svg width="18" height="16" viewBox="0 0 18 16" fill="none" xmlns="http://www.w3.org/2000/svg">
<path d="M0.739573 2.91311H14.8134L15.0226 0.652847C15.0568 0.28322 15.3762 0 15.7588 0H17.2608C17.669 0 18 0.320979 18 0.716927C18 1.11288 17.669 1.43385 17.2608 1.43385H16.4347C15.9832 6.31176 17.15 -6.29581 15.5844 10.6204C15.5241 11.2825 15.1552 12.0009 14.5198 12.4891C15.6655 13.9081 14.6187 16 12.755 16C11.2082 16 10.1172 14.5038 10.6476 13.0868H6.60173C7.13151 14.502 6.04287 16 4.49436 16C3.25858 16 2.2532 15.0249 2.2532 13.8264C2.2532 12.628 3.25858 11.6529 4.49436 11.6529H12.75C13.3115 11.6529 13.8009 11.3243 14.0121 10.8456L2.19821 10.1723C1.8757 10.1539 1.60282 9.93446 1.52442 9.63048L0.0223808 3.80391C-0.0940666 3.35211 0.258581 2.91311 0.739573 2.91311ZM12.755 14.5661C13.1755 14.5661 13.5177 14.2343 13.5177 13.8264C13.5177 13.4186 13.1755 13.0868 12.755 13.0868C12.3344 13.0868 11.9923 13.4186 11.9923 13.8264C11.9923 14.2343 12.3344 14.5661 12.755 14.5661ZM4.4944 14.5661C4.91495 14.5661 5.2571 14.2343 5.2571 13.8264C5.2571 13.4186 4.91495 13.0868 4.4944 13.0868C4.07385 13.0868 3.73169 13.4186 3.73169 13.8264C3.73169 14.2343 4.07385 14.5661 4.4944 14.5661ZM2.82705 8.77181L14.2111 9.42062L14.6807 4.34693H1.68635L2.82705 8.77181Z" fill="white"/>
</svg>
